# xmcd CD database file
#
# Track frame offsets:
#	150
#	18600
#	38035
#	56094
#
# Disc length: 1039 seconds
#
# Revision: 0
# Processed by: cddbd v1.5.1PL0 Copyright (c) Steve Scherf et al.
# Submitted via: CDex 1.51
#
DISCID=2e040d04
DTITLE=Black And Proud - Marijiuana Devil
DYEAR=2002
DGENRE=Hard Rock
TTITLE0=Anybody Crazy?
TTITLE1=Marijuana Devil
TTITLE2=Empty Heart In Hotel Room
TTITLE3=Will You Buy One More Lie?
EXTD=YEAR: 2002
EXTT0=
EXTT1=
EXTT2=
EXTT3=
PLAYORDER=
